:FULLY-SPECIFIED
:FORCE-ALL-JOINTS-BE-3DOF
:DEGREES
1020
root 0.276344 13.5553 -35.3921 372.302 -28.1742 342.178
lfemur -70.0899 35.9686 -4.03731
ltibia 82.2652 0 0
lfoot -12.546 -8.91404 0
ltoes -4.93553 0 0
rfemur 10.2377 -8.79045 8.73109
rtibia 36.2979 0 0
rfoot -22.6612 -25.9898 0
rtoes -31.6451 0 0
lowerback 10.3871 -1.02577 5.54004
upperback -1.80997 -0.106246 8.43388
thorax -7.81737 -0.129563 5.95215
lowerneck -4.72694 8.36479 3.45203
upperneck 8.04989 11.0312 -1.14476
head 3.7302 5.51887 -0.429798
lclavicle -5.82788e-14 -1.15034e-14 0
lhumerus 92.2527 -19.5022 20.2522
lradius 101.264 0 0
lwrist 13.0342 0 0
lhand -36.2932 32.9884 0
lfingers 7.12502 0 0
lthumb -9.39344 62.7982 0
rclavicle -5.82788e-14 -1.15034e-14 0
rhumerus -77.5493 22.9636 -94.8961
rradius 112.318 0 0
rwrist -62.6167 0 0
rhand -9.90676 -25.4899 0
rfingers 7.12502 0 0
rthumb 16.0735 -54.8436 0
1021
root 0.271651 13.5516 -35.3832 372.302 -28.1745 342.204
lfemur -70.1072 36.0034 -4.06596
ltibia 82.3311 0 0
lfoot -12.6466 -8.86046 0
ltoes -5.10264 0 0
rfemur 10.2767 -8.77613 8.70379
rtibia 36.2711 0 0
rfoot -22.6592 -26.0183 0
rtoes -31.6113 0 0
lowerback 10.3509 -0.998206 5.50285
upperback -1.82187 -0.0793833 8.39082
thorax -7.80964 -0.115314 5.92023
lowerneck -4.7489 8.35951 3.44612
upperneck 8.03648 11.0219 -1.12299
head 3.72771 5.51482 -0.421643
lclavicle -5.83894e-14 -7.43605e-15 0
lhumerus 91.0617 -17.5428 21.3805
lradius 100.309 0 0
lwrist 12.3919 0 0
lhand -36.2572 32.6146 0
lfingers 7.12502 0 0
lthumb -9.35865 62.4209 0
rclavicle -5.83894e-14 -7.43605e-15 0
rhumerus -77.5592 22.9796 -94.929
rradius 112.259 0 0
rwrist -62.7055 0 0
rhand -9.95263 -25.4252 0
rfingers 7.12502 0 0
rthumb 16.0293 -54.7824 0
1022
root 0.266549 13.5478 -35.3743 372.302 -28.1743 342.231
lfemur -70.1235 36.0376 -4.09458
ltibia 82.3951 0 0
lfoot -12.749 -8.80339 0
ltoes -5.27962 0 0
rfemur 10.3153 -8.7615 8.6769
rtibia 36.2447 0 0
rfoot -22.657 -26.0494 0
rtoes -31.576 0 0
lowerback 10.3134 -0.968743 5.46503
upperback -1.83397 -0.0503652 8.34448
thorax -7.80138 -0.100028 5.88464
lowerneck -4.77145 8.35364 3.43971
upperneck 8.02062 11.0117 -1.10028
head 3.72437 5.51035 -0.413181
lclavicle -5.84136e-14 -3.19976e-15 0
lhumerus 89.7505 -15.5072 22.6091
lradius 99.2587 0 0
lwrist 11.716 0 0
lhand -36.2093 32.221 0
lfingers 7.12502 0 0
lthumb -9.31229 62.0238 0
rclavicle -5.84136e-14 -3.19976e-15 0
rhumerus -77.569 22.9951 -94.9642
rradius 112.195 0 0
rwrist -62.8026 0 0
rhand -10.0016 -25.357 0
rfingers 7.12502 0 0
rthumb 15.9821 -54.7179 0
1023
root 0.261027 13.5441 -35.3655 372.303 -28.1734 342.26
lfemur -70.1387 36.0712 -4.12316
ltibia 82.4573 0 0
lfoot -12.8535 -8.74269 0
ltoes -5.46678 0 0
rfemur 10.3535 -8.74654 8.65046
rtibia 36.2186 0 0
rfoot -22.6548 -26.083 0
rtoes -31.5392 0 0
lowerback 10.2747 -0.937327 5.42657
upperback -1.84626 -0.0191318 8.29476
thorax -7.7926 -0.0836755 5.84528
lowerneck -4.79459 8.34718 3.43278
upperneck 8.00223 11.0006 -1.07659
head 3.72014 5.50546 -0.404406
lclavicle -5.83477e-14 1.209e-15 0
lhumerus 88.3156 -13.3939 23.9407
lradius 98.1112 0 0
lwrist 11.0058 0 0
lhand -36.149 31.8072 0
lfingers 7.12502 0 0
lthumb -9.25398 61.6064 0
rclavicle -5.83477e-14 1.209e-15 0
rhumerus -77.5785 23.0103 -95.0017
rradius 112.126 0 0
rwrist -62.9081 0 0
rhand -10.0539 -25.2852 0
rfingers 7.12502 0 0
rthumb 15.9318 -54.6501 0
1024
root 0.255075 13.5405 -35.3566 372.304 -28.1719 342.292
lfemur -70.1527 36.1043 -4.15167
ltibia 82.5174 0 0
lfoot -12.9599 -8.67823 0
ltoes -5.66445 0 0
rfemur 10.3912 -8.73127 8.62448
rtibia 36.193 0 0
rfoot -22.6526 -26.1193 0
rtoes -31.5007 0 0
lowerback 10.2346 -0.90391 5.38746
upperback -1.85876 0.0143765 8.24158
thorax -7.78329 -0.0662289 5.80203
lowerneck -4.81832 8.34009 3.42531
upperneck 7.98123 10.9886 -1.05192
head 3.715 5.50013 -0.395313
lclavicle -5.8188e-14 5.79373e-15 0
lhumerus 86.7539 -11.2014 25.3782
lradius 96.8637 0 0
lwrist 10.2606 0 0
lhand -36.0759 31.3727 0
lfingers 7.12502 0 0
lthumb -9.18335 61.1682 0
rclavicle -5.8188e-14 5.79373e-15 0
rhumerus -77.5879 23.0249 -95.0416
rradius 112.052 0 0
rwrist -63.0223 0 0
rhand -10.1094 -25.2098 0
rfingers 7.12502 0 0
rthumb 15.8783 -54.5788 0
1025
root 0.248681 13.5368 -35.3478 372.305 -28.1697 342.325
lfemur -70.1656 36.1366 -4.1801
ltibia 82.5754 0 0
lfoot -13.0682 -8.60987 0
ltoes -5.87293 0 0
rfemur 10.4284 -8.71567 8.59899
rtibia 36.1678 0 0
rfoot -22.6503 -26.1583 0
rtoes -31.4607 0 0
lowerback 10.1931 -0.86844 5.3477
upperback -1.87144 0.0502197 8.18484
thorax -7.77343 -0.04766 5.7548
lowerneck -4.84267 8.33237 3.4173
upperneck 7.95753 10.9756 -1.02623
head 3.70892 5.49436 -0.385894
lclavicle -5.7931e-14 1.0558e-14 0
lhumerus 85.0619 -8.92842 26.9242
lradius 95.5137 0 0
lwrist 9.47956 0 0
lhand -35.9897 30.9171 0
lfingers 7.12502 0 0
lthumb -9.10002 60.7089 0
rclavicle -5.7931e-14 1.0558e-14 0
rhumerus -77.597 23.0392 -95.084
rradius 111.974 0 0
rwrist -63.1455 0 0
rhand -10.1683 -25.1307 0
rfingers 7.12502 0 0
rthumb 15.8216 -54.5041 0
1026
root 0.241835 13.5333 -35.339 372.306 -28.1668 342.36
lfemur -70.1772 36.1683 -4.20844
ltibia 82.6312 0 0
lfoot -13.1786 -8.53747 0
ltoes -6.09254 0 0
rfemur 10.4651 -8.69976 8.57401
rtibia 36.1431 0 0
rfoot -22.6479 -26.2 0
rtoes -31.419 0 0
lowerback 10.1503 -0.830868 5.30728
upperback -1.88432 0.0884574 8.12446
thorax -7.76301 -0.0279407 5.70346
lowerneck -4.86763 8.32399 3.40872
upperneck 7.93106 10.9617 -0.999513
head 3.70187 5.48813 -0.376144
lclavicle -5.7573e-14 1.55052e-14 0
lhumerus 83.2364 -6.57342 28.5815
lradius 94.0584 0 0
lwrist 8.66203 0 0
lhand -35.89 30.44 0
lfingers 7.12502 0 0
lthumb -9.00363 60.2279 0
rclavicle -5.7573e-14 1.55052e-14 0
rhumerus -77.6058 23.0529 -95.1289
rradius 111.89 0 0
rwrist -63.2778 0 0
rhand -10.2306 -25.0477 0
rfingers 7.12502 0 0
rthumb 15.7616 -54.4259 0
1027
root 0.241401 13.5306 -35.3347 372.309 -28.1737 342.367
lfemur -70.1967 36.1799 -4.22085
ltibia 82.6812 0 0
lfoot -13.228 -8.47752 0
ltoes -6.2054 0 0
rfemur 10.4845 -8.69571 8.55035
rtibia 36.1253 0 0
rfoot -22.6392 -26.212 0
rtoes -31.4266 0 0
lowerback 10.1461 -0.823972 5.29005
upperback -1.88713 0.0947028 8.11417
thorax -7.76379 -0.0242691 5.70065
lowerneck -4.8773 8.32322 3.40629
upperneck 7.92934 10.96 -0.992553
head 3.70241 5.4874 -0.373228
lclavicle -5.7336e-14 1.68625e-14 0
lhumerus 83.2332 -5.98954 28.6835
lradius 94.0044 0 0
lwrist 8.53604 0 0
lhand -35.9213 30.3634 0
lfingers 7.12502 0 0
lthumb -9.03383 60.1503 0
rclavicle -5.7336e-14 1.68625e-14 0
rhumerus -77.6108 23.0591 -95.1352
rradius 111.881 0 0
rwrist -63.2972 0 0
rhand -10.233 -25.0394 0
rfingers 7.12502 0 0
rthumb 15.7593 -54.4178 0
